M48
INCH,TZ
T1C0.025
T2C0.032
T3C0.040
%
G90
G05
T1
X28500Y-49500
X29000Y-52500
X30000Y-46500
X30000Y-47500
X31500Y-53500
X32500Y-48000
X32500Y-48500
X35500Y-48000
X35500Y-54500
X36000Y-55500
X36500Y-47500
X37000Y-48500
T2
X28000Y-47500
X28500Y-54000
X28500Y-55000
X29000Y-47500
X30000Y-54500
X30500Y-49500
X30500Y-52500
X31000Y-54500
X31000Y-55500
X31500Y-49500
X31500Y-52500
X32500Y-49500
X32500Y-52500
X33000Y-53500
X33000Y-54500
X33500Y-49500
X33500Y-52500
X34500Y-49500
X34500Y-52500
X35000Y-54000
X35000Y-55000
X35500Y-49500
X35500Y-52500
X36500Y-49500
X36500Y-52500
X37000Y-54500
X38000Y-48500
X38000Y-49500
X38000Y-50500
X38000Y-51500
X38000Y-54500
X40000Y-53000
X40000Y-54000
X41000Y-48500
X41000Y-49500
X41000Y-50500
X41000Y-51500
T3
X28000Y-50500
X28000Y-51500
X28000Y-52500
X28500Y-45500
X29500Y-45500
X32000Y-45500
X32000Y-46500
X33000Y-45500
X33000Y-46500
X34000Y-45500
X34000Y-46500
X35000Y-45500
X35000Y-46500
X37500Y-45000
X37500Y-46500
X38500Y-45000
X38500Y-46500
X39500Y-45000
X40500Y-45000
T0
M30
