%FSLAX34Y34*%
G04 Gerber Fmt 3.4, Leading zero omitted, Abs format*
G04 (created by PCBNEW (2014-02-15 BZR 4699)-product) date Sat 08 Mar 2014 11:33:38 PM EST*
%MOIN*%
G01*
G70*
G90*
G04 APERTURE LIST*
%ADD10C,0.005906*%
%ADD11C,0.015000*%
%ADD12C,0.010000*%
%ADD13C,0.012000*%
%ADD14C,0.006000*%
%ADD15C,0.008000*%
%ADD16C,0.003000*%
%ADD17C,0.011250*%
%ADD18C,0.003500*%
G04 APERTURE END LIST*
G54D10*
G54D11*
X29500Y-50000D02*
X37500Y-50000D01*
X37500Y-52000D02*
X29500Y-52000D01*
X29500Y-52000D02*
X29500Y-50000D01*
X29500Y-50500D02*
X30000Y-50500D01*
X30000Y-50500D02*
X30000Y-51500D01*
X30000Y-51500D02*
X29500Y-51500D01*
X37500Y-50000D02*
X37500Y-52000D01*
G54D12*
X28500Y-52000D02*
X28500Y-50000D01*
X28500Y-50000D02*
X27500Y-50000D01*
X27500Y-50000D02*
X27500Y-52000D01*
X27500Y-53000D02*
X27500Y-52000D01*
X27500Y-52000D02*
X28500Y-52000D01*
X27500Y-53000D02*
X28500Y-53000D01*
X28500Y-53000D02*
X28500Y-52000D01*
X34500Y-45000D02*
X31500Y-45000D01*
X31500Y-45000D02*
X31500Y-47000D01*
X31500Y-47000D02*
X35500Y-47000D01*
X35500Y-47000D02*
X35500Y-46000D01*
X35500Y-45000D02*
X34500Y-45000D01*
X35500Y-46000D02*
X34500Y-46000D01*
X34500Y-46000D02*
X34500Y-45000D01*
X35500Y-45000D02*
X35500Y-46000D01*
G54D11*
X29000Y-47500D02*
X28000Y-47500D01*
X29559Y-47500D02*
G75*
G03X29559Y-47500I-559J0D01*
G74*
G01*
G54D13*
X29500Y-54500D02*
X31000Y-56000D01*
X31000Y-56000D02*
X31500Y-56000D01*
X31500Y-56000D02*
X32000Y-55500D01*
X32000Y-55500D02*
X32000Y-54500D01*
X32000Y-54500D02*
X31000Y-53500D01*
X31000Y-53500D02*
X30000Y-53500D01*
X30000Y-53500D02*
X29500Y-54000D01*
X29500Y-54000D02*
X29500Y-54500D01*
G54D11*
X35000Y-54000D02*
X35000Y-55000D01*
X35559Y-54000D02*
G75*
G03X35559Y-54000I-559J0D01*
G74*
G01*
X28500Y-54000D02*
X28500Y-55000D01*
X29059Y-54000D02*
G75*
G03X29059Y-54000I-559J0D01*
G74*
G01*
X33000Y-54500D02*
X33000Y-53500D01*
X33559Y-54500D02*
G75*
G03X33559Y-54500I-559J0D01*
G74*
G01*
X40000Y-53000D02*
X40000Y-54000D01*
X40559Y-53000D02*
G75*
G03X40559Y-53000I-559J0D01*
G74*
G01*
G54D12*
X37000Y-44500D02*
X41000Y-44500D01*
X37000Y-45500D02*
X41000Y-45500D01*
X41000Y-45500D02*
X41000Y-44500D01*
X37000Y-44500D02*
X37000Y-45500D01*
G54D14*
X39000Y-46000D02*
X39000Y-47000D01*
X39000Y-47000D02*
X37000Y-47000D01*
X37000Y-47000D02*
X37000Y-46000D01*
X37000Y-46000D02*
X39000Y-46000D01*
X28000Y-46000D02*
X28000Y-45000D01*
X28000Y-45000D02*
X30000Y-45000D01*
X30000Y-45000D02*
X30000Y-46000D01*
X30000Y-46000D02*
X28000Y-46000D01*
G54D15*
X36380Y-53750D02*
X36380Y-55250D01*
G54D16*
X38107Y-54500D02*
G75*
G03X38107Y-54500I-707J0D01*
G74*
G01*
G54D12*
X36400Y-55251D02*
G75*
G03X36400Y-53750I999J751D01*
G74*
G01*
G54D14*
X37400Y-54950D02*
G75*
G03X37850Y-54500I0J450D01*
G74*
G01*
X37400Y-54050D02*
G75*
G03X36950Y-54500I0J-450D01*
G74*
G01*
X37400Y-55150D02*
G75*
G03X38050Y-54500I0J650D01*
G74*
G01*
X37400Y-53850D02*
G75*
G03X36750Y-54500I0J-650D01*
G74*
G01*
X37400Y-55350D02*
G75*
G03X38250Y-54500I0J850D01*
G74*
G01*
X37400Y-53650D02*
G75*
G03X36550Y-54500I0J-850D01*
G74*
G01*
G54D12*
X40000Y-48000D02*
X40000Y-48500D01*
X40000Y-48500D02*
X39000Y-48500D01*
X39000Y-48500D02*
X39000Y-48000D01*
X40500Y-48000D02*
X40500Y-52000D01*
X40500Y-52000D02*
X38500Y-52000D01*
X38500Y-52000D02*
X38500Y-48000D01*
X38500Y-48000D02*
X40500Y-48000D01*
G54D17*
X31060Y-50771D02*
X31060Y-50171D01*
X31532Y-50714D02*
X31510Y-50742D01*
X31446Y-50771D01*
X31403Y-50771D01*
X31339Y-50742D01*
X31296Y-50685D01*
X31275Y-50628D01*
X31253Y-50514D01*
X31253Y-50428D01*
X31275Y-50314D01*
X31296Y-50257D01*
X31339Y-50200D01*
X31403Y-50171D01*
X31446Y-50171D01*
X31510Y-50200D01*
X31532Y-50228D01*
X31960Y-50771D02*
X31703Y-50771D01*
X31832Y-50771D02*
X31832Y-50171D01*
X31789Y-50257D01*
X31746Y-50314D01*
X31703Y-50342D01*
G54D13*
G54D17*
X32082Y-51600D02*
X32296Y-51600D01*
X32039Y-51771D02*
X32189Y-51171D01*
X32339Y-51771D01*
X32425Y-51171D02*
X32682Y-51171D01*
X32553Y-51771D02*
X32553Y-51171D01*
X32767Y-51171D02*
X33025Y-51171D01*
X32896Y-51771D02*
X32896Y-51171D01*
X33175Y-51771D02*
X33175Y-51171D01*
X33389Y-51771D02*
X33389Y-51171D01*
X33646Y-51771D01*
X33646Y-51171D01*
X33946Y-51485D02*
X33946Y-51771D01*
X33796Y-51171D02*
X33946Y-51485D01*
X34096Y-51171D01*
X34310Y-51428D02*
X34267Y-51400D01*
X34246Y-51371D01*
X34225Y-51314D01*
X34225Y-51285D01*
X34246Y-51228D01*
X34267Y-51200D01*
X34310Y-51171D01*
X34396Y-51171D01*
X34439Y-51200D01*
X34460Y-51228D01*
X34482Y-51285D01*
X34482Y-51314D01*
X34460Y-51371D01*
X34439Y-51400D01*
X34396Y-51428D01*
X34310Y-51428D01*
X34267Y-51457D01*
X34246Y-51485D01*
X34225Y-51542D01*
X34225Y-51657D01*
X34246Y-51714D01*
X34267Y-51742D01*
X34310Y-51771D01*
X34396Y-51771D01*
X34439Y-51742D01*
X34460Y-51714D01*
X34482Y-51657D01*
X34482Y-51542D01*
X34460Y-51485D01*
X34439Y-51457D01*
X34396Y-51428D01*
X34867Y-51371D02*
X34867Y-51771D01*
X34760Y-51142D02*
X34653Y-51571D01*
X34932Y-51571D01*
X35103Y-51542D02*
X35446Y-51542D01*
X35660Y-51771D02*
X35660Y-51171D01*
X35832Y-51171D01*
X35875Y-51200D01*
X35896Y-51228D01*
X35917Y-51285D01*
X35917Y-51371D01*
X35896Y-51428D01*
X35875Y-51457D01*
X35832Y-51485D01*
X35660Y-51485D01*
G54D13*
G54D15*
X27326Y-51869D02*
X26826Y-51869D01*
X27326Y-51583D02*
X27040Y-51797D01*
X26826Y-51583D02*
X27111Y-51869D01*
X27326Y-51107D02*
X27326Y-51392D01*
X27326Y-51250D02*
X26826Y-51250D01*
X26897Y-51297D01*
X26945Y-51345D01*
X26969Y-51392D01*
X33130Y-47726D02*
X33130Y-47226D01*
X33321Y-47226D01*
X33369Y-47250D01*
X33392Y-47273D01*
X33416Y-47321D01*
X33416Y-47392D01*
X33392Y-47440D01*
X33369Y-47464D01*
X33321Y-47488D01*
X33130Y-47488D01*
X33892Y-47726D02*
X33607Y-47726D01*
X33750Y-47726D02*
X33750Y-47226D01*
X33702Y-47297D01*
X33654Y-47345D01*
X33607Y-47369D01*
X28816Y-46748D02*
X28650Y-46486D01*
X28530Y-46748D02*
X28530Y-46198D01*
X28721Y-46198D01*
X28769Y-46225D01*
X28792Y-46251D01*
X28816Y-46303D01*
X28816Y-46382D01*
X28792Y-46434D01*
X28769Y-46460D01*
X28721Y-46486D01*
X28530Y-46486D01*
X29292Y-46748D02*
X29007Y-46748D01*
X29150Y-46748D02*
X29150Y-46198D01*
X29102Y-46277D01*
X29054Y-46329D01*
X29007Y-46355D01*
X29219Y-54538D02*
X29200Y-54576D01*
X29161Y-54614D01*
X29104Y-54671D01*
X29085Y-54709D01*
X29085Y-54747D01*
X29180Y-54728D02*
X29161Y-54766D01*
X29123Y-54804D01*
X29047Y-54823D01*
X28914Y-54823D01*
X28838Y-54804D01*
X28800Y-54766D01*
X28780Y-54728D01*
X28780Y-54652D01*
X28800Y-54614D01*
X28838Y-54576D01*
X28914Y-54557D01*
X29047Y-54557D01*
X29123Y-54576D01*
X29161Y-54614D01*
X29180Y-54652D01*
X29180Y-54728D01*
X29180Y-54176D02*
X29180Y-54404D01*
X29180Y-54290D02*
X28780Y-54290D01*
X28838Y-54328D01*
X28876Y-54366D01*
X28895Y-54404D01*
X32680Y-55747D02*
X32280Y-55747D01*
X32280Y-55595D01*
X32300Y-55557D01*
X32319Y-55538D01*
X32357Y-55519D01*
X32414Y-55519D01*
X32452Y-55538D01*
X32471Y-55557D01*
X32490Y-55595D01*
X32490Y-55747D01*
X32680Y-55347D02*
X32280Y-55347D01*
X32680Y-55119D01*
X32280Y-55119D01*
X32319Y-54947D02*
X32300Y-54928D01*
X32280Y-54890D01*
X32280Y-54795D01*
X32300Y-54757D01*
X32319Y-54738D01*
X32357Y-54719D01*
X32395Y-54719D01*
X32452Y-54738D01*
X32680Y-54966D01*
X32680Y-54719D01*
X32319Y-54566D02*
X32300Y-54547D01*
X32280Y-54509D01*
X32280Y-54414D01*
X32300Y-54376D01*
X32319Y-54357D01*
X32357Y-54338D01*
X32395Y-54338D01*
X32452Y-54357D01*
X32680Y-54585D01*
X32680Y-54338D01*
X32319Y-54185D02*
X32300Y-54166D01*
X32280Y-54128D01*
X32280Y-54033D01*
X32300Y-53995D01*
X32319Y-53976D01*
X32357Y-53957D01*
X32395Y-53957D01*
X32452Y-53976D01*
X32680Y-54204D01*
X32680Y-53957D01*
X32319Y-53804D02*
X32300Y-53785D01*
X32280Y-53747D01*
X32280Y-53652D01*
X32300Y-53614D01*
X32319Y-53595D01*
X32357Y-53576D01*
X32395Y-53576D01*
X32452Y-53595D01*
X32680Y-53823D01*
X32680Y-53576D01*
X32566Y-53423D02*
X32566Y-53233D01*
X32680Y-53461D02*
X32280Y-53328D01*
X32680Y-53195D01*
X34248Y-54183D02*
X33986Y-54350D01*
X34248Y-54469D02*
X33698Y-54469D01*
X33698Y-54278D01*
X33725Y-54230D01*
X33751Y-54207D01*
X33803Y-54183D01*
X33882Y-54183D01*
X33934Y-54207D01*
X33960Y-54230D01*
X33986Y-54278D01*
X33986Y-54469D01*
X33751Y-53992D02*
X33725Y-53969D01*
X33698Y-53921D01*
X33698Y-53802D01*
X33725Y-53754D01*
X33751Y-53730D01*
X33803Y-53707D01*
X33855Y-53707D01*
X33934Y-53730D01*
X34248Y-54016D01*
X34248Y-53707D01*
X27748Y-54183D02*
X27486Y-54350D01*
X27748Y-54469D02*
X27198Y-54469D01*
X27198Y-54278D01*
X27225Y-54230D01*
X27251Y-54207D01*
X27303Y-54183D01*
X27382Y-54183D01*
X27434Y-54207D01*
X27460Y-54230D01*
X27486Y-54278D01*
X27486Y-54469D01*
X27198Y-54016D02*
X27198Y-53707D01*
X27408Y-53873D01*
X27408Y-53802D01*
X27434Y-53754D01*
X27460Y-53730D01*
X27513Y-53707D01*
X27644Y-53707D01*
X27696Y-53730D01*
X27722Y-53754D01*
X27748Y-53802D01*
X27748Y-53945D01*
X27722Y-53992D01*
X27696Y-54016D01*
X34248Y-54483D02*
X33986Y-54650D01*
X34248Y-54769D02*
X33698Y-54769D01*
X33698Y-54578D01*
X33725Y-54530D01*
X33751Y-54507D01*
X33803Y-54483D01*
X33882Y-54483D01*
X33934Y-54507D01*
X33960Y-54530D01*
X33986Y-54578D01*
X33986Y-54769D01*
X33698Y-54054D02*
X33698Y-54150D01*
X33725Y-54197D01*
X33751Y-54221D01*
X33829Y-54269D01*
X33934Y-54292D01*
X34144Y-54292D01*
X34196Y-54269D01*
X34222Y-54245D01*
X34248Y-54197D01*
X34248Y-54102D01*
X34222Y-54054D01*
X34196Y-54030D01*
X34144Y-54007D01*
X34013Y-54007D01*
X33960Y-54030D01*
X33934Y-54054D01*
X33908Y-54102D01*
X33908Y-54197D01*
X33934Y-54245D01*
X33960Y-54269D01*
X34013Y-54292D01*
X39248Y-53183D02*
X38986Y-53350D01*
X39248Y-53469D02*
X38698Y-53469D01*
X38698Y-53278D01*
X38725Y-53230D01*
X38751Y-53207D01*
X38803Y-53183D01*
X38882Y-53183D01*
X38934Y-53207D01*
X38960Y-53230D01*
X38986Y-53278D01*
X38986Y-53469D01*
X38882Y-52754D02*
X39248Y-52754D01*
X38672Y-52873D02*
X39065Y-52992D01*
X39065Y-52683D01*
X38704Y-46180D02*
X38704Y-45780D01*
X38857Y-45780D01*
X38895Y-45800D01*
X38914Y-45819D01*
X38933Y-45857D01*
X38933Y-45914D01*
X38914Y-45952D01*
X38895Y-45971D01*
X38857Y-45990D01*
X38704Y-45990D01*
X39085Y-45819D02*
X39104Y-45800D01*
X39142Y-45780D01*
X39238Y-45780D01*
X39276Y-45800D01*
X39295Y-45819D01*
X39314Y-45857D01*
X39314Y-45895D01*
X39295Y-45952D01*
X39066Y-46180D01*
X39314Y-46180D01*
G54D14*
X37778Y-47385D02*
X37778Y-47085D01*
X37892Y-47085D01*
X37921Y-47100D01*
X37935Y-47114D01*
X37950Y-47142D01*
X37950Y-47185D01*
X37935Y-47214D01*
X37921Y-47228D01*
X37892Y-47242D01*
X37778Y-47242D01*
X38050Y-47085D02*
X38235Y-47085D01*
X38135Y-47200D01*
X38178Y-47200D01*
X38207Y-47214D01*
X38221Y-47228D01*
X38235Y-47257D01*
X38235Y-47328D01*
X38221Y-47357D01*
X38207Y-47371D01*
X38178Y-47385D01*
X38092Y-47385D01*
X38064Y-47371D01*
X38050Y-47357D01*
X28778Y-44885D02*
X28778Y-44585D01*
X28892Y-44585D01*
X28921Y-44600D01*
X28935Y-44614D01*
X28950Y-44642D01*
X28950Y-44685D01*
X28935Y-44714D01*
X28921Y-44728D01*
X28892Y-44742D01*
X28778Y-44742D01*
X29207Y-44685D02*
X29207Y-44885D01*
X29135Y-44571D02*
X29064Y-44785D01*
X29250Y-44785D01*
G54D18*
X37278Y-56135D02*
X37278Y-55835D01*
X37350Y-55835D01*
X37392Y-55850D01*
X37421Y-55878D01*
X37435Y-55907D01*
X37450Y-55964D01*
X37450Y-56007D01*
X37435Y-56064D01*
X37421Y-56092D01*
X37392Y-56121D01*
X37350Y-56135D01*
X37278Y-56135D01*
X37735Y-56135D02*
X37564Y-56135D01*
X37650Y-56135D02*
X37650Y-55835D01*
X37621Y-55878D01*
X37592Y-55907D01*
X37564Y-55921D01*
X37307Y-53135D02*
X37164Y-53135D01*
X37164Y-52835D01*
X37407Y-52978D02*
X37507Y-52978D01*
X37550Y-53135D02*
X37407Y-53135D01*
X37407Y-52835D01*
X37550Y-52835D01*
X37678Y-53135D02*
X37678Y-52835D01*
X37750Y-52835D01*
X37792Y-52850D01*
X37821Y-52878D01*
X37835Y-52907D01*
X37850Y-52964D01*
X37850Y-53007D01*
X37835Y-53064D01*
X37821Y-53092D01*
X37792Y-53121D01*
X37750Y-53135D01*
X37678Y-53135D01*
G54D15*
X39157Y-47226D02*
X39157Y-47630D01*
X39178Y-47678D01*
X39200Y-47702D01*
X39242Y-47726D01*
X39328Y-47726D01*
X39371Y-47702D01*
X39392Y-47678D01*
X39414Y-47630D01*
X39414Y-47226D01*
X39864Y-47726D02*
X39607Y-47726D01*
X39735Y-47726D02*
X39735Y-47226D01*
X39692Y-47297D01*
X39650Y-47345D01*
X39607Y-47369D01*
X39583Y-51276D02*
X39583Y-51085D01*
X39726Y-51314D02*
X39226Y-51180D01*
X39726Y-51047D01*
X39773Y-50647D02*
X39750Y-50685D01*
X39702Y-50723D01*
X39630Y-50780D01*
X39607Y-50819D01*
X39607Y-50857D01*
X39726Y-50838D02*
X39702Y-50876D01*
X39654Y-50914D01*
X39559Y-50933D01*
X39392Y-50933D01*
X39297Y-50914D01*
X39250Y-50876D01*
X39226Y-50838D01*
X39226Y-50761D01*
X39250Y-50723D01*
X39297Y-50685D01*
X39392Y-50666D01*
X39559Y-50666D01*
X39654Y-50685D01*
X39702Y-50723D01*
X39726Y-50761D01*
X39726Y-50838D01*
X39726Y-50495D02*
X39226Y-50495D01*
X39464Y-50495D02*
X39464Y-50266D01*
X39726Y-50266D02*
X39226Y-50266D01*
X39226Y-50114D02*
X39226Y-49866D01*
X39416Y-49999D01*
X39416Y-49942D01*
X39440Y-49904D01*
X39464Y-49885D01*
X39511Y-49866D01*
X39630Y-49866D01*
X39678Y-49885D01*
X39702Y-49904D01*
X39726Y-49942D01*
X39726Y-50057D01*
X39702Y-50095D01*
X39678Y-50114D01*
X39273Y-49714D02*
X39250Y-49695D01*
X39226Y-49657D01*
X39226Y-49561D01*
X39250Y-49523D01*
X39273Y-49504D01*
X39321Y-49485D01*
X39369Y-49485D01*
X39440Y-49504D01*
X39726Y-49733D01*
X39726Y-49485D01*
X39273Y-49333D02*
X39250Y-49314D01*
X39226Y-49276D01*
X39226Y-49180D01*
X39250Y-49142D01*
X39273Y-49123D01*
X39321Y-49104D01*
X39369Y-49104D01*
X39440Y-49123D01*
X39726Y-49352D01*
X39726Y-49104D01*
X39226Y-48971D02*
X39226Y-48723D01*
X39416Y-48857D01*
X39416Y-48800D01*
X39440Y-48761D01*
X39464Y-48742D01*
X39511Y-48723D01*
X39630Y-48723D01*
X39678Y-48742D01*
X39702Y-48761D01*
X39726Y-48800D01*
X39726Y-48914D01*
X39702Y-48952D01*
X39678Y-48971D01*
M02*
