%FSLAX34Y34*%
G04 Gerber Fmt 3.4, Leading zero omitted, Abs format*
G04 (created by PCBNEW (2014-02-15 BZR 4699)-product) date Sat 08 Mar 2014 11:33:38 PM EST*
%MOIN*%
G01*
G70*
G90*
G04 APERTURE LIST*
%ADD10C,0.005906*%
%ADD11R,0.055000X0.055000*%
%ADD12C,0.055000*%
%ADD13R,0.080000X0.068000*%
%ADD14O,0.080000X0.068000*%
%ADD15R,0.068000X0.068000*%
%ADD16O,0.068000X0.068000*%
%ADD17R,0.060000X0.060000*%
%ADD18C,0.060000*%
%ADD19C,0.066000*%
%ADD20C,0.035000*%
%ADD21C,0.010000*%
G04 APERTURE END LIST*
G54D10*
G54D11*
X30500Y-52500D03*
G54D12*
X31500Y-52500D03*
X32500Y-52500D03*
X33500Y-52500D03*
X34500Y-52500D03*
X35500Y-52500D03*
X36500Y-52500D03*
X36500Y-49500D03*
X35500Y-49500D03*
X34500Y-49500D03*
X33500Y-49500D03*
X32500Y-49500D03*
X31500Y-49500D03*
X30500Y-49500D03*
G54D13*
X28000Y-52500D03*
G54D14*
X28000Y-51500D03*
X28000Y-50500D03*
G54D15*
X35000Y-45500D03*
G54D16*
X34000Y-45500D03*
X33000Y-45500D03*
X32000Y-45500D03*
X32000Y-46500D03*
X33000Y-46500D03*
X34000Y-46500D03*
X35000Y-46500D03*
G54D12*
X29000Y-47500D03*
X28000Y-47500D03*
G54D11*
X31000Y-55500D03*
G54D12*
X31000Y-54500D03*
X30000Y-54500D03*
X35000Y-54000D03*
X35000Y-55000D03*
X28500Y-54000D03*
X28500Y-55000D03*
X33000Y-54500D03*
X33000Y-53500D03*
X40000Y-53000D03*
X40000Y-54000D03*
G54D17*
X40500Y-45000D03*
G54D18*
X39500Y-45000D03*
X38500Y-45000D03*
X37500Y-45000D03*
G54D17*
X38500Y-46500D03*
G54D18*
X37500Y-46500D03*
G54D17*
X28500Y-45500D03*
G54D18*
X29500Y-45500D03*
G54D19*
X38000Y-54500D03*
X37000Y-54500D03*
G54D11*
X38000Y-48500D03*
G54D12*
X38000Y-49500D03*
X38000Y-50500D03*
X38000Y-51500D03*
X41000Y-51500D03*
X41000Y-50500D03*
X41000Y-49500D03*
X41000Y-48500D03*
G54D20*
X36000Y-55500D03*
X35500Y-54500D03*
X37000Y-48500D03*
X32500Y-48500D03*
X31500Y-53500D03*
X30000Y-46500D03*
X29000Y-52500D03*
X28500Y-49500D03*
X36500Y-47500D03*
X30000Y-47500D03*
X35500Y-48000D03*
X32500Y-48000D03*
G54D21*
X28500Y-54000D02*
X29500Y-54000D01*
X29500Y-54000D02*
X30000Y-54500D01*
X28000Y-52500D02*
X28000Y-53500D01*
X28000Y-53500D02*
X28500Y-54000D01*
X35000Y-54000D02*
X35500Y-54500D01*
X27000Y-51500D02*
X27000Y-54500D01*
X35000Y-56500D02*
X36000Y-55500D01*
X29000Y-56500D02*
X35000Y-56500D01*
X27000Y-54500D02*
X29000Y-56500D01*
X36000Y-55500D02*
X37000Y-54500D01*
X33000Y-54500D02*
X34500Y-54500D01*
X34500Y-54500D02*
X35000Y-54000D01*
X30500Y-49500D02*
X30500Y-44500D01*
X28000Y-51500D02*
X27000Y-51500D01*
X35000Y-44500D02*
X35000Y-45500D01*
X27000Y-44500D02*
X30500Y-44500D01*
X30500Y-44500D02*
X35000Y-44500D01*
X27000Y-51500D02*
X27000Y-44500D01*
X29000Y-47500D02*
X29000Y-51500D01*
X31500Y-51500D02*
X31500Y-52500D01*
X29000Y-51500D02*
X31500Y-51500D01*
X28500Y-55000D02*
X30500Y-55000D01*
X30500Y-55000D02*
X31000Y-55500D01*
X31000Y-55500D02*
X34500Y-55500D01*
X34500Y-55500D02*
X35000Y-55000D01*
X35000Y-55000D02*
X35500Y-55000D01*
X35500Y-55000D02*
X36000Y-54500D01*
X36000Y-54500D02*
X36000Y-53500D01*
X36000Y-53500D02*
X37000Y-53500D01*
X37000Y-53500D02*
X37500Y-53000D01*
X37500Y-53000D02*
X37500Y-52500D01*
X37500Y-52500D02*
X38000Y-52000D01*
X38000Y-52000D02*
X38000Y-51500D01*
X40000Y-53000D02*
X40000Y-51500D01*
X40000Y-51500D02*
X38000Y-49500D01*
X32500Y-49500D02*
X32500Y-48500D01*
X37000Y-48500D02*
X38000Y-49500D01*
X29500Y-45500D02*
X29500Y-46000D01*
X31500Y-53500D02*
X33000Y-53500D01*
X29500Y-46000D02*
X30000Y-46500D01*
X33000Y-53500D02*
X33500Y-53500D01*
X33500Y-53500D02*
X34500Y-52500D01*
X39500Y-45000D02*
X39500Y-48500D01*
X39500Y-48500D02*
X41000Y-48500D01*
X28000Y-50500D02*
X28000Y-47500D01*
X28500Y-45500D02*
X28500Y-49500D01*
X29000Y-52500D02*
X30500Y-52500D01*
X28500Y-45500D02*
X28500Y-46000D01*
X35500Y-46500D02*
X35000Y-46500D01*
X36500Y-47500D02*
X35500Y-46500D01*
X28500Y-46000D02*
X30000Y-47500D01*
X30500Y-52500D02*
X30500Y-54000D01*
X30500Y-54000D02*
X31000Y-54500D01*
X37500Y-45000D02*
X37500Y-46500D01*
X38500Y-45000D02*
X38500Y-46500D01*
X40500Y-45000D02*
X40500Y-47500D01*
X41500Y-50500D02*
X41000Y-50500D01*
X41500Y-47500D02*
X41500Y-50500D01*
X40500Y-47500D02*
X41500Y-47500D01*
X40000Y-54000D02*
X38500Y-54000D01*
X38500Y-54000D02*
X38000Y-54500D01*
X36000Y-47500D02*
X36000Y-49000D01*
X37000Y-53000D02*
X35500Y-53000D01*
X37000Y-49000D02*
X37000Y-53000D01*
X36000Y-49000D02*
X37000Y-49000D01*
X35500Y-53000D02*
X35500Y-52500D01*
X34000Y-47000D02*
X34500Y-47500D01*
X34500Y-47500D02*
X36000Y-47500D01*
X34000Y-46500D02*
X34000Y-47000D01*
X35500Y-53000D02*
X35500Y-52500D01*
X32000Y-45500D02*
X31000Y-45500D01*
X36500Y-51000D02*
X36500Y-52500D01*
X31000Y-51000D02*
X36500Y-51000D01*
X31000Y-45500D02*
X31000Y-51000D01*
X33000Y-46500D02*
X33000Y-50500D01*
X36500Y-50500D02*
X36500Y-49500D01*
X33000Y-50500D02*
X36500Y-50500D01*
X33000Y-45500D02*
X32500Y-46000D01*
X35500Y-48000D02*
X35500Y-49500D01*
X32500Y-46000D02*
X32500Y-48000D01*
X34000Y-45500D02*
X33500Y-46000D01*
X34500Y-48500D02*
X34500Y-49500D01*
X33500Y-47500D02*
X34500Y-48500D01*
X33500Y-46000D02*
X33500Y-47500D01*
G54D10*
G36*
X35779Y-53300D02*
X35722Y-53385D01*
X35700Y-53500D01*
X35700Y-54375D01*
X35529Y-54545D01*
X35529Y-54075D01*
X35518Y-53867D01*
X35460Y-53727D01*
X35367Y-53702D01*
X35297Y-53773D01*
X35297Y-53632D01*
X35272Y-53539D01*
X35075Y-53470D01*
X34867Y-53481D01*
X34727Y-53539D01*
X34702Y-53632D01*
X35000Y-53929D01*
X35297Y-53632D01*
X35297Y-53773D01*
X35070Y-54000D01*
X35367Y-54297D01*
X35460Y-54272D01*
X35529Y-54075D01*
X35529Y-54545D01*
X35409Y-54666D01*
X35297Y-54555D01*
X35171Y-54502D01*
X35272Y-54460D01*
X35297Y-54367D01*
X35000Y-54070D01*
X34929Y-54141D01*
X34929Y-54000D01*
X34632Y-53702D01*
X34539Y-53727D01*
X34470Y-53924D01*
X34481Y-54132D01*
X34539Y-54272D01*
X34632Y-54297D01*
X34929Y-54000D01*
X34929Y-54141D01*
X34702Y-54367D01*
X34727Y-54460D01*
X34837Y-54499D01*
X34703Y-54554D01*
X34555Y-54702D01*
X34475Y-54895D01*
X34474Y-55100D01*
X34375Y-55200D01*
X33529Y-55200D01*
X33529Y-54575D01*
X33518Y-54367D01*
X33460Y-54227D01*
X33367Y-54202D01*
X33070Y-54500D01*
X33367Y-54797D01*
X33460Y-54772D01*
X33529Y-54575D01*
X33529Y-55200D01*
X33297Y-55200D01*
X33297Y-54867D01*
X33000Y-54570D01*
X32929Y-54641D01*
X32929Y-54500D01*
X32632Y-54202D01*
X32539Y-54227D01*
X32470Y-54424D01*
X32481Y-54632D01*
X32539Y-54772D01*
X32632Y-54797D01*
X32929Y-54500D01*
X32929Y-54641D01*
X32702Y-54867D01*
X32727Y-54960D01*
X32924Y-55029D01*
X33132Y-55018D01*
X33272Y-54960D01*
X33297Y-54867D01*
X33297Y-55200D01*
X31525Y-55200D01*
X31525Y-55175D01*
X31486Y-55083D01*
X31416Y-55013D01*
X31324Y-54975D01*
X31225Y-54975D01*
X31225Y-54975D01*
X31297Y-54945D01*
X31444Y-54797D01*
X31524Y-54604D01*
X31525Y-54396D01*
X31445Y-54203D01*
X31297Y-54055D01*
X31104Y-53975D01*
X30899Y-53974D01*
X30800Y-53875D01*
X30800Y-53025D01*
X30824Y-53025D01*
X30916Y-52986D01*
X30986Y-52916D01*
X31025Y-52824D01*
X31025Y-52725D01*
X31025Y-52725D01*
X31054Y-52797D01*
X31202Y-52944D01*
X31395Y-53024D01*
X31603Y-53025D01*
X31797Y-52945D01*
X31944Y-52797D01*
X32000Y-52664D01*
X32054Y-52797D01*
X32202Y-52944D01*
X32395Y-53024D01*
X32603Y-53025D01*
X32797Y-52945D01*
X32944Y-52797D01*
X33000Y-52664D01*
X33054Y-52797D01*
X33202Y-52944D01*
X33395Y-53024D01*
X33550Y-53025D01*
X33409Y-53166D01*
X33297Y-53055D01*
X33104Y-52975D01*
X32896Y-52974D01*
X32703Y-53054D01*
X32557Y-53200D01*
X31801Y-53200D01*
X31741Y-53139D01*
X31584Y-53075D01*
X31415Y-53074D01*
X31259Y-53139D01*
X31139Y-53258D01*
X31075Y-53415D01*
X31074Y-53584D01*
X31139Y-53740D01*
X31258Y-53860D01*
X31415Y-53924D01*
X31584Y-53925D01*
X31740Y-53860D01*
X31801Y-53800D01*
X32557Y-53800D01*
X32702Y-53944D01*
X32828Y-53997D01*
X32727Y-54039D01*
X32702Y-54132D01*
X33000Y-54429D01*
X33297Y-54132D01*
X33272Y-54039D01*
X33162Y-54000D01*
X33297Y-53945D01*
X33442Y-53800D01*
X33500Y-53800D01*
X33500Y-53799D01*
X33614Y-53777D01*
X33614Y-53777D01*
X33712Y-53712D01*
X34399Y-53024D01*
X34603Y-53025D01*
X34797Y-52945D01*
X34944Y-52797D01*
X35000Y-52664D01*
X35054Y-52797D01*
X35200Y-52942D01*
X35200Y-53000D01*
X35222Y-53114D01*
X35287Y-53212D01*
X35385Y-53277D01*
X35500Y-53300D01*
X35779Y-53300D01*
X35779Y-53300D01*
G37*
G54D21*
X35779Y-53300D02*
X35722Y-53385D01*
X35700Y-53500D01*
X35700Y-54375D01*
X35529Y-54545D01*
X35529Y-54075D01*
X35518Y-53867D01*
X35460Y-53727D01*
X35367Y-53702D01*
X35297Y-53773D01*
X35297Y-53632D01*
X35272Y-53539D01*
X35075Y-53470D01*
X34867Y-53481D01*
X34727Y-53539D01*
X34702Y-53632D01*
X35000Y-53929D01*
X35297Y-53632D01*
X35297Y-53773D01*
X35070Y-54000D01*
X35367Y-54297D01*
X35460Y-54272D01*
X35529Y-54075D01*
X35529Y-54545D01*
X35409Y-54666D01*
X35297Y-54555D01*
X35171Y-54502D01*
X35272Y-54460D01*
X35297Y-54367D01*
X35000Y-54070D01*
X34929Y-54141D01*
X34929Y-54000D01*
X34632Y-53702D01*
X34539Y-53727D01*
X34470Y-53924D01*
X34481Y-54132D01*
X34539Y-54272D01*
X34632Y-54297D01*
X34929Y-54000D01*
X34929Y-54141D01*
X34702Y-54367D01*
X34727Y-54460D01*
X34837Y-54499D01*
X34703Y-54554D01*
X34555Y-54702D01*
X34475Y-54895D01*
X34474Y-55100D01*
X34375Y-55200D01*
X33529Y-55200D01*
X33529Y-54575D01*
X33518Y-54367D01*
X33460Y-54227D01*
X33367Y-54202D01*
X33070Y-54500D01*
X33367Y-54797D01*
X33460Y-54772D01*
X33529Y-54575D01*
X33529Y-55200D01*
X33297Y-55200D01*
X33297Y-54867D01*
X33000Y-54570D01*
X32929Y-54641D01*
X32929Y-54500D01*
X32632Y-54202D01*
X32539Y-54227D01*
X32470Y-54424D01*
X32481Y-54632D01*
X32539Y-54772D01*
X32632Y-54797D01*
X32929Y-54500D01*
X32929Y-54641D01*
X32702Y-54867D01*
X32727Y-54960D01*
X32924Y-55029D01*
X33132Y-55018D01*
X33272Y-54960D01*
X33297Y-54867D01*
X33297Y-55200D01*
X31525Y-55200D01*
X31525Y-55175D01*
X31486Y-55083D01*
X31416Y-55013D01*
X31324Y-54975D01*
X31225Y-54975D01*
X31225Y-54975D01*
X31297Y-54945D01*
X31444Y-54797D01*
X31524Y-54604D01*
X31525Y-54396D01*
X31445Y-54203D01*
X31297Y-54055D01*
X31104Y-53975D01*
X30899Y-53974D01*
X30800Y-53875D01*
X30800Y-53025D01*
X30824Y-53025D01*
X30916Y-52986D01*
X30986Y-52916D01*
X31025Y-52824D01*
X31025Y-52725D01*
X31025Y-52725D01*
X31054Y-52797D01*
X31202Y-52944D01*
X31395Y-53024D01*
X31603Y-53025D01*
X31797Y-52945D01*
X31944Y-52797D01*
X32000Y-52664D01*
X32054Y-52797D01*
X32202Y-52944D01*
X32395Y-53024D01*
X32603Y-53025D01*
X32797Y-52945D01*
X32944Y-52797D01*
X33000Y-52664D01*
X33054Y-52797D01*
X33202Y-52944D01*
X33395Y-53024D01*
X33550Y-53025D01*
X33409Y-53166D01*
X33297Y-53055D01*
X33104Y-52975D01*
X32896Y-52974D01*
X32703Y-53054D01*
X32557Y-53200D01*
X31801Y-53200D01*
X31741Y-53139D01*
X31584Y-53075D01*
X31415Y-53074D01*
X31259Y-53139D01*
X31139Y-53258D01*
X31075Y-53415D01*
X31074Y-53584D01*
X31139Y-53740D01*
X31258Y-53860D01*
X31415Y-53924D01*
X31584Y-53925D01*
X31740Y-53860D01*
X31801Y-53800D01*
X32557Y-53800D01*
X32702Y-53944D01*
X32828Y-53997D01*
X32727Y-54039D01*
X32702Y-54132D01*
X33000Y-54429D01*
X33297Y-54132D01*
X33272Y-54039D01*
X33162Y-54000D01*
X33297Y-53945D01*
X33442Y-53800D01*
X33500Y-53800D01*
X33500Y-53799D01*
X33614Y-53777D01*
X33614Y-53777D01*
X33712Y-53712D01*
X34399Y-53024D01*
X34603Y-53025D01*
X34797Y-52945D01*
X34944Y-52797D01*
X35000Y-52664D01*
X35054Y-52797D01*
X35200Y-52942D01*
X35200Y-53000D01*
X35222Y-53114D01*
X35287Y-53212D01*
X35385Y-53277D01*
X35500Y-53300D01*
X35779Y-53300D01*
G54D10*
G36*
X40950Y-56450D02*
X37336Y-56450D01*
X37336Y-54907D01*
X37000Y-54570D01*
X36929Y-54641D01*
X36929Y-54500D01*
X36592Y-54163D01*
X36493Y-54194D01*
X36415Y-54411D01*
X36425Y-54641D01*
X36493Y-54805D01*
X36592Y-54836D01*
X36929Y-54500D01*
X36929Y-54641D01*
X36663Y-54907D01*
X36694Y-55006D01*
X36911Y-55084D01*
X37141Y-55074D01*
X37305Y-55006D01*
X37336Y-54907D01*
X37336Y-56450D01*
X27050Y-56450D01*
X27050Y-44550D01*
X35950Y-44550D01*
X35950Y-46520D01*
X36504Y-47075D01*
X36499Y-47074D01*
X35712Y-46287D01*
X35614Y-46222D01*
X35508Y-46201D01*
X35428Y-46082D01*
X35420Y-46077D01*
X35481Y-46051D01*
X35551Y-45981D01*
X35590Y-45889D01*
X35590Y-45790D01*
X35590Y-45612D01*
X35590Y-45387D01*
X35590Y-45209D01*
X35590Y-45110D01*
X35551Y-45018D01*
X35481Y-44948D01*
X35389Y-44910D01*
X35112Y-44910D01*
X35050Y-44972D01*
X35050Y-45450D01*
X35527Y-45450D01*
X35590Y-45387D01*
X35590Y-45612D01*
X35527Y-45550D01*
X35050Y-45550D01*
X35050Y-45557D01*
X34950Y-45557D01*
X34950Y-45550D01*
X34942Y-45550D01*
X34942Y-45450D01*
X34950Y-45450D01*
X34950Y-44972D01*
X34887Y-44910D01*
X34610Y-44910D01*
X34518Y-44948D01*
X34448Y-45018D01*
X34422Y-45078D01*
X34237Y-44954D01*
X34011Y-44910D01*
X33988Y-44910D01*
X33762Y-44954D01*
X33571Y-45082D01*
X33500Y-45189D01*
X33428Y-45082D01*
X33237Y-44954D01*
X33011Y-44910D01*
X32988Y-44910D01*
X32762Y-44954D01*
X32571Y-45082D01*
X32500Y-45189D01*
X32428Y-45082D01*
X32237Y-44954D01*
X32011Y-44910D01*
X31988Y-44910D01*
X31762Y-44954D01*
X31571Y-45082D01*
X31492Y-45200D01*
X31000Y-45200D01*
X30885Y-45222D01*
X30787Y-45287D01*
X30722Y-45385D01*
X30700Y-45500D01*
X30700Y-49013D01*
X30575Y-48970D01*
X30367Y-48981D01*
X30227Y-49039D01*
X30202Y-49132D01*
X30500Y-49429D01*
X30505Y-49423D01*
X30576Y-49494D01*
X30570Y-49500D01*
X30576Y-49505D01*
X30505Y-49576D01*
X30500Y-49570D01*
X30429Y-49641D01*
X30429Y-49500D01*
X30132Y-49202D01*
X30039Y-49227D01*
X29970Y-49424D01*
X29981Y-49632D01*
X30039Y-49772D01*
X30132Y-49797D01*
X30429Y-49500D01*
X30429Y-49641D01*
X30202Y-49867D01*
X30227Y-49960D01*
X30424Y-50029D01*
X30632Y-50018D01*
X30700Y-49990D01*
X30700Y-51000D01*
X30722Y-51114D01*
X30779Y-51200D01*
X29300Y-51200D01*
X29300Y-47942D01*
X29444Y-47797D01*
X29524Y-47604D01*
X29525Y-47449D01*
X29575Y-47499D01*
X29574Y-47584D01*
X29639Y-47740D01*
X29758Y-47860D01*
X29915Y-47924D01*
X30084Y-47925D01*
X30240Y-47860D01*
X30360Y-47741D01*
X30424Y-47584D01*
X30425Y-47415D01*
X30360Y-47259D01*
X30241Y-47139D01*
X30084Y-47075D01*
X29999Y-47074D01*
X29802Y-46878D01*
X29915Y-46924D01*
X30084Y-46925D01*
X30240Y-46860D01*
X30360Y-46741D01*
X30424Y-46584D01*
X30425Y-46415D01*
X30360Y-46259D01*
X30241Y-46139D01*
X30084Y-46075D01*
X29999Y-46074D01*
X29851Y-45926D01*
X29965Y-45811D01*
X30049Y-45609D01*
X30050Y-45391D01*
X29966Y-45188D01*
X29811Y-45034D01*
X29609Y-44950D01*
X29391Y-44949D01*
X29188Y-45033D01*
X29050Y-45172D01*
X29050Y-45150D01*
X29011Y-45058D01*
X28941Y-44988D01*
X28849Y-44950D01*
X28750Y-44950D01*
X28150Y-44950D01*
X28058Y-44988D01*
X27988Y-45058D01*
X27950Y-45150D01*
X27950Y-45249D01*
X27950Y-45849D01*
X27988Y-45941D01*
X28058Y-46011D01*
X28150Y-46050D01*
X28200Y-46050D01*
X28200Y-47014D01*
X28104Y-46975D01*
X27896Y-46974D01*
X27703Y-47054D01*
X27555Y-47202D01*
X27475Y-47395D01*
X27474Y-47603D01*
X27554Y-47797D01*
X27700Y-47942D01*
X27700Y-49955D01*
X27510Y-50082D01*
X27382Y-50274D01*
X27337Y-50500D01*
X27382Y-50725D01*
X27510Y-50917D01*
X27631Y-50998D01*
X27468Y-51144D01*
X27368Y-51352D01*
X27367Y-51358D01*
X27414Y-51450D01*
X27950Y-51450D01*
X27950Y-51442D01*
X28050Y-51442D01*
X28050Y-51450D01*
X28585Y-51450D01*
X28632Y-51358D01*
X28631Y-51352D01*
X28531Y-51144D01*
X28368Y-50998D01*
X28489Y-50917D01*
X28617Y-50725D01*
X28662Y-50500D01*
X28617Y-50274D01*
X28489Y-50082D01*
X28300Y-49955D01*
X28300Y-49877D01*
X28415Y-49924D01*
X28584Y-49925D01*
X28700Y-49877D01*
X28700Y-51500D01*
X28722Y-51614D01*
X28787Y-51712D01*
X28885Y-51777D01*
X29000Y-51800D01*
X31200Y-51800D01*
X31200Y-52057D01*
X31055Y-52202D01*
X31025Y-52274D01*
X31025Y-52175D01*
X30986Y-52083D01*
X30916Y-52013D01*
X30824Y-51975D01*
X30725Y-51975D01*
X30175Y-51975D01*
X30083Y-52013D01*
X30013Y-52083D01*
X29975Y-52175D01*
X29975Y-52200D01*
X29301Y-52200D01*
X29241Y-52139D01*
X29084Y-52075D01*
X28915Y-52074D01*
X28759Y-52139D01*
X28650Y-52248D01*
X28650Y-52110D01*
X28611Y-52018D01*
X28541Y-51948D01*
X28463Y-51915D01*
X28531Y-51855D01*
X28631Y-51647D01*
X28632Y-51641D01*
X28585Y-51550D01*
X28050Y-51550D01*
X28050Y-51557D01*
X27950Y-51557D01*
X27950Y-51550D01*
X27414Y-51550D01*
X27367Y-51641D01*
X27368Y-51647D01*
X27468Y-51855D01*
X27536Y-51915D01*
X27458Y-51948D01*
X27388Y-52018D01*
X27350Y-52110D01*
X27350Y-52209D01*
X27350Y-52889D01*
X27388Y-52981D01*
X27458Y-53051D01*
X27550Y-53090D01*
X27649Y-53090D01*
X27700Y-53090D01*
X27700Y-53500D01*
X27722Y-53614D01*
X27787Y-53712D01*
X27975Y-53899D01*
X27974Y-54103D01*
X28054Y-54297D01*
X28202Y-54444D01*
X28335Y-54500D01*
X28203Y-54554D01*
X28055Y-54702D01*
X27975Y-54895D01*
X27974Y-55103D01*
X28054Y-55297D01*
X28202Y-55444D01*
X28395Y-55524D01*
X28603Y-55525D01*
X28797Y-55445D01*
X28942Y-55300D01*
X30375Y-55300D01*
X30475Y-55399D01*
X30475Y-55824D01*
X30513Y-55916D01*
X30583Y-55986D01*
X30675Y-56025D01*
X30774Y-56025D01*
X31324Y-56025D01*
X31416Y-55986D01*
X31486Y-55916D01*
X31525Y-55824D01*
X31525Y-55800D01*
X34500Y-55800D01*
X34500Y-55799D01*
X34614Y-55777D01*
X34614Y-55777D01*
X34712Y-55712D01*
X34899Y-55524D01*
X35103Y-55525D01*
X35297Y-55445D01*
X35442Y-55300D01*
X35500Y-55300D01*
X35500Y-55299D01*
X35614Y-55277D01*
X35614Y-55277D01*
X35712Y-55212D01*
X36212Y-54712D01*
X36212Y-54712D01*
X36277Y-54614D01*
X36299Y-54500D01*
X36300Y-54500D01*
X36300Y-53800D01*
X37000Y-53800D01*
X37000Y-53799D01*
X37114Y-53777D01*
X37114Y-53777D01*
X37212Y-53712D01*
X37712Y-53212D01*
X37712Y-53212D01*
X37777Y-53114D01*
X37799Y-53000D01*
X37800Y-53000D01*
X37800Y-52624D01*
X38212Y-52212D01*
X38212Y-52212D01*
X38277Y-52114D01*
X38299Y-52000D01*
X38300Y-52000D01*
X38300Y-51942D01*
X38444Y-51797D01*
X38524Y-51604D01*
X38525Y-51396D01*
X38445Y-51203D01*
X38297Y-51055D01*
X38164Y-50999D01*
X38297Y-50945D01*
X38444Y-50797D01*
X38524Y-50604D01*
X38525Y-50449D01*
X39700Y-51624D01*
X39700Y-52557D01*
X39555Y-52702D01*
X39475Y-52895D01*
X39474Y-53103D01*
X39554Y-53297D01*
X39702Y-53444D01*
X39835Y-53500D01*
X39703Y-53554D01*
X39557Y-53700D01*
X38500Y-53700D01*
X38385Y-53722D01*
X38287Y-53787D01*
X38143Y-53931D01*
X38115Y-53920D01*
X37885Y-53919D01*
X37671Y-54008D01*
X37508Y-54171D01*
X37499Y-54192D01*
X37407Y-54163D01*
X37336Y-54233D01*
X37336Y-54092D01*
X37305Y-53993D01*
X37088Y-53915D01*
X36858Y-53925D01*
X36694Y-53993D01*
X36663Y-54092D01*
X37000Y-54429D01*
X37336Y-54092D01*
X37336Y-54233D01*
X37070Y-54500D01*
X37407Y-54836D01*
X37499Y-54807D01*
X37508Y-54828D01*
X37671Y-54991D01*
X37884Y-55079D01*
X38114Y-55080D01*
X38328Y-54991D01*
X38491Y-54828D01*
X38579Y-54615D01*
X38580Y-54385D01*
X38568Y-54356D01*
X38624Y-54300D01*
X39557Y-54300D01*
X39702Y-54444D01*
X39895Y-54524D01*
X40103Y-54525D01*
X40297Y-54445D01*
X40444Y-54297D01*
X40524Y-54104D01*
X40525Y-53896D01*
X40445Y-53703D01*
X40297Y-53555D01*
X40164Y-53499D01*
X40297Y-53445D01*
X40444Y-53297D01*
X40524Y-53104D01*
X40525Y-52896D01*
X40445Y-52703D01*
X40300Y-52557D01*
X40300Y-51500D01*
X40277Y-51385D01*
X40277Y-51385D01*
X40212Y-51287D01*
X38524Y-49600D01*
X38525Y-49396D01*
X38445Y-49203D01*
X38297Y-49055D01*
X38225Y-49025D01*
X38324Y-49025D01*
X38416Y-48986D01*
X38486Y-48916D01*
X38525Y-48824D01*
X38525Y-48725D01*
X38525Y-48175D01*
X38486Y-48083D01*
X38416Y-48013D01*
X38324Y-47975D01*
X38225Y-47975D01*
X37675Y-47975D01*
X37583Y-48013D01*
X37513Y-48083D01*
X37475Y-48175D01*
X37475Y-48274D01*
X37475Y-48550D01*
X37424Y-48500D01*
X37425Y-48415D01*
X37360Y-48259D01*
X37241Y-48139D01*
X37084Y-48075D01*
X36915Y-48074D01*
X36759Y-48139D01*
X36639Y-48258D01*
X36575Y-48415D01*
X36574Y-48584D01*
X36622Y-48700D01*
X36300Y-48700D01*
X36300Y-47877D01*
X36415Y-47924D01*
X36584Y-47925D01*
X36740Y-47860D01*
X36860Y-47741D01*
X36924Y-47584D01*
X36925Y-47495D01*
X36979Y-47550D01*
X38967Y-47550D01*
X39200Y-48073D01*
X39200Y-48500D01*
X39222Y-48614D01*
X39287Y-48712D01*
X39385Y-48777D01*
X39500Y-48800D01*
X39523Y-48800D01*
X40579Y-51177D01*
X40555Y-51202D01*
X40475Y-51395D01*
X40474Y-51603D01*
X40554Y-51797D01*
X40702Y-51944D01*
X40895Y-52024D01*
X40950Y-52024D01*
X40950Y-56450D01*
X40950Y-56450D01*
G37*
G54D21*
X40950Y-56450D02*
X37336Y-56450D01*
X37336Y-54907D01*
X37000Y-54570D01*
X36929Y-54641D01*
X36929Y-54500D01*
X36592Y-54163D01*
X36493Y-54194D01*
X36415Y-54411D01*
X36425Y-54641D01*
X36493Y-54805D01*
X36592Y-54836D01*
X36929Y-54500D01*
X36929Y-54641D01*
X36663Y-54907D01*
X36694Y-55006D01*
X36911Y-55084D01*
X37141Y-55074D01*
X37305Y-55006D01*
X37336Y-54907D01*
X37336Y-56450D01*
X27050Y-56450D01*
X27050Y-44550D01*
X35950Y-44550D01*
X35950Y-46520D01*
X36504Y-47075D01*
X36499Y-47074D01*
X35712Y-46287D01*
X35614Y-46222D01*
X35508Y-46201D01*
X35428Y-46082D01*
X35420Y-46077D01*
X35481Y-46051D01*
X35551Y-45981D01*
X35590Y-45889D01*
X35590Y-45790D01*
X35590Y-45612D01*
X35590Y-45387D01*
X35590Y-45209D01*
X35590Y-45110D01*
X35551Y-45018D01*
X35481Y-44948D01*
X35389Y-44910D01*
X35112Y-44910D01*
X35050Y-44972D01*
X35050Y-45450D01*
X35527Y-45450D01*
X35590Y-45387D01*
X35590Y-45612D01*
X35527Y-45550D01*
X35050Y-45550D01*
X35050Y-45557D01*
X34950Y-45557D01*
X34950Y-45550D01*
X34942Y-45550D01*
X34942Y-45450D01*
X34950Y-45450D01*
X34950Y-44972D01*
X34887Y-44910D01*
X34610Y-44910D01*
X34518Y-44948D01*
X34448Y-45018D01*
X34422Y-45078D01*
X34237Y-44954D01*
X34011Y-44910D01*
X33988Y-44910D01*
X33762Y-44954D01*
X33571Y-45082D01*
X33500Y-45189D01*
X33428Y-45082D01*
X33237Y-44954D01*
X33011Y-44910D01*
X32988Y-44910D01*
X32762Y-44954D01*
X32571Y-45082D01*
X32500Y-45189D01*
X32428Y-45082D01*
X32237Y-44954D01*
X32011Y-44910D01*
X31988Y-44910D01*
X31762Y-44954D01*
X31571Y-45082D01*
X31492Y-45200D01*
X31000Y-45200D01*
X30885Y-45222D01*
X30787Y-45287D01*
X30722Y-45385D01*
X30700Y-45500D01*
X30700Y-49013D01*
X30575Y-48970D01*
X30367Y-48981D01*
X30227Y-49039D01*
X30202Y-49132D01*
X30500Y-49429D01*
X30505Y-49423D01*
X30576Y-49494D01*
X30570Y-49500D01*
X30576Y-49505D01*
X30505Y-49576D01*
X30500Y-49570D01*
X30429Y-49641D01*
X30429Y-49500D01*
X30132Y-49202D01*
X30039Y-49227D01*
X29970Y-49424D01*
X29981Y-49632D01*
X30039Y-49772D01*
X30132Y-49797D01*
X30429Y-49500D01*
X30429Y-49641D01*
X30202Y-49867D01*
X30227Y-49960D01*
X30424Y-50029D01*
X30632Y-50018D01*
X30700Y-49990D01*
X30700Y-51000D01*
X30722Y-51114D01*
X30779Y-51200D01*
X29300Y-51200D01*
X29300Y-47942D01*
X29444Y-47797D01*
X29524Y-47604D01*
X29525Y-47449D01*
X29575Y-47499D01*
X29574Y-47584D01*
X29639Y-47740D01*
X29758Y-47860D01*
X29915Y-47924D01*
X30084Y-47925D01*
X30240Y-47860D01*
X30360Y-47741D01*
X30424Y-47584D01*
X30425Y-47415D01*
X30360Y-47259D01*
X30241Y-47139D01*
X30084Y-47075D01*
X29999Y-47074D01*
X29802Y-46878D01*
X29915Y-46924D01*
X30084Y-46925D01*
X30240Y-46860D01*
X30360Y-46741D01*
X30424Y-46584D01*
X30425Y-46415D01*
X30360Y-46259D01*
X30241Y-46139D01*
X30084Y-46075D01*
X29999Y-46074D01*
X29851Y-45926D01*
X29965Y-45811D01*
X30049Y-45609D01*
X30050Y-45391D01*
X29966Y-45188D01*
X29811Y-45034D01*
X29609Y-44950D01*
X29391Y-44949D01*
X29188Y-45033D01*
X29050Y-45172D01*
X29050Y-45150D01*
X29011Y-45058D01*
X28941Y-44988D01*
X28849Y-44950D01*
X28750Y-44950D01*
X28150Y-44950D01*
X28058Y-44988D01*
X27988Y-45058D01*
X27950Y-45150D01*
X27950Y-45249D01*
X27950Y-45849D01*
X27988Y-45941D01*
X28058Y-46011D01*
X28150Y-46050D01*
X28200Y-46050D01*
X28200Y-47014D01*
X28104Y-46975D01*
X27896Y-46974D01*
X27703Y-47054D01*
X27555Y-47202D01*
X27475Y-47395D01*
X27474Y-47603D01*
X27554Y-47797D01*
X27700Y-47942D01*
X27700Y-49955D01*
X27510Y-50082D01*
X27382Y-50274D01*
X27337Y-50500D01*
X27382Y-50725D01*
X27510Y-50917D01*
X27631Y-50998D01*
X27468Y-51144D01*
X27368Y-51352D01*
X27367Y-51358D01*
X27414Y-51450D01*
X27950Y-51450D01*
X27950Y-51442D01*
X28050Y-51442D01*
X28050Y-51450D01*
X28585Y-51450D01*
X28632Y-51358D01*
X28631Y-51352D01*
X28531Y-51144D01*
X28368Y-50998D01*
X28489Y-50917D01*
X28617Y-50725D01*
X28662Y-50500D01*
X28617Y-50274D01*
X28489Y-50082D01*
X28300Y-49955D01*
X28300Y-49877D01*
X28415Y-49924D01*
X28584Y-49925D01*
X28700Y-49877D01*
X28700Y-51500D01*
X28722Y-51614D01*
X28787Y-51712D01*
X28885Y-51777D01*
X29000Y-51800D01*
X31200Y-51800D01*
X31200Y-52057D01*
X31055Y-52202D01*
X31025Y-52274D01*
X31025Y-52175D01*
X30986Y-52083D01*
X30916Y-52013D01*
X30824Y-51975D01*
X30725Y-51975D01*
X30175Y-51975D01*
X30083Y-52013D01*
X30013Y-52083D01*
X29975Y-52175D01*
X29975Y-52200D01*
X29301Y-52200D01*
X29241Y-52139D01*
X29084Y-52075D01*
X28915Y-52074D01*
X28759Y-52139D01*
X28650Y-52248D01*
X28650Y-52110D01*
X28611Y-52018D01*
X28541Y-51948D01*
X28463Y-51915D01*
X28531Y-51855D01*
X28631Y-51647D01*
X28632Y-51641D01*
X28585Y-51550D01*
X28050Y-51550D01*
X28050Y-51557D01*
X27950Y-51557D01*
X27950Y-51550D01*
X27414Y-51550D01*
X27367Y-51641D01*
X27368Y-51647D01*
X27468Y-51855D01*
X27536Y-51915D01*
X27458Y-51948D01*
X27388Y-52018D01*
X27350Y-52110D01*
X27350Y-52209D01*
X27350Y-52889D01*
X27388Y-52981D01*
X27458Y-53051D01*
X27550Y-53090D01*
X27649Y-53090D01*
X27700Y-53090D01*
X27700Y-53500D01*
X27722Y-53614D01*
X27787Y-53712D01*
X27975Y-53899D01*
X27974Y-54103D01*
X28054Y-54297D01*
X28202Y-54444D01*
X28335Y-54500D01*
X28203Y-54554D01*
X28055Y-54702D01*
X27975Y-54895D01*
X27974Y-55103D01*
X28054Y-55297D01*
X28202Y-55444D01*
X28395Y-55524D01*
X28603Y-55525D01*
X28797Y-55445D01*
X28942Y-55300D01*
X30375Y-55300D01*
X30475Y-55399D01*
X30475Y-55824D01*
X30513Y-55916D01*
X30583Y-55986D01*
X30675Y-56025D01*
X30774Y-56025D01*
X31324Y-56025D01*
X31416Y-55986D01*
X31486Y-55916D01*
X31525Y-55824D01*
X31525Y-55800D01*
X34500Y-55800D01*
X34500Y-55799D01*
X34614Y-55777D01*
X34614Y-55777D01*
X34712Y-55712D01*
X34899Y-55524D01*
X35103Y-55525D01*
X35297Y-55445D01*
X35442Y-55300D01*
X35500Y-55300D01*
X35500Y-55299D01*
X35614Y-55277D01*
X35614Y-55277D01*
X35712Y-55212D01*
X36212Y-54712D01*
X36212Y-54712D01*
X36277Y-54614D01*
X36299Y-54500D01*
X36300Y-54500D01*
X36300Y-53800D01*
X37000Y-53800D01*
X37000Y-53799D01*
X37114Y-53777D01*
X37114Y-53777D01*
X37212Y-53712D01*
X37712Y-53212D01*
X37712Y-53212D01*
X37777Y-53114D01*
X37799Y-53000D01*
X37800Y-53000D01*
X37800Y-52624D01*
X38212Y-52212D01*
X38212Y-52212D01*
X38277Y-52114D01*
X38299Y-52000D01*
X38300Y-52000D01*
X38300Y-51942D01*
X38444Y-51797D01*
X38524Y-51604D01*
X38525Y-51396D01*
X38445Y-51203D01*
X38297Y-51055D01*
X38164Y-50999D01*
X38297Y-50945D01*
X38444Y-50797D01*
X38524Y-50604D01*
X38525Y-50449D01*
X39700Y-51624D01*
X39700Y-52557D01*
X39555Y-52702D01*
X39475Y-52895D01*
X39474Y-53103D01*
X39554Y-53297D01*
X39702Y-53444D01*
X39835Y-53500D01*
X39703Y-53554D01*
X39557Y-53700D01*
X38500Y-53700D01*
X38385Y-53722D01*
X38287Y-53787D01*
X38143Y-53931D01*
X38115Y-53920D01*
X37885Y-53919D01*
X37671Y-54008D01*
X37508Y-54171D01*
X37499Y-54192D01*
X37407Y-54163D01*
X37336Y-54233D01*
X37336Y-54092D01*
X37305Y-53993D01*
X37088Y-53915D01*
X36858Y-53925D01*
X36694Y-53993D01*
X36663Y-54092D01*
X37000Y-54429D01*
X37336Y-54092D01*
X37336Y-54233D01*
X37070Y-54500D01*
X37407Y-54836D01*
X37499Y-54807D01*
X37508Y-54828D01*
X37671Y-54991D01*
X37884Y-55079D01*
X38114Y-55080D01*
X38328Y-54991D01*
X38491Y-54828D01*
X38579Y-54615D01*
X38580Y-54385D01*
X38568Y-54356D01*
X38624Y-54300D01*
X39557Y-54300D01*
X39702Y-54444D01*
X39895Y-54524D01*
X40103Y-54525D01*
X40297Y-54445D01*
X40444Y-54297D01*
X40524Y-54104D01*
X40525Y-53896D01*
X40445Y-53703D01*
X40297Y-53555D01*
X40164Y-53499D01*
X40297Y-53445D01*
X40444Y-53297D01*
X40524Y-53104D01*
X40525Y-52896D01*
X40445Y-52703D01*
X40300Y-52557D01*
X40300Y-51500D01*
X40277Y-51385D01*
X40277Y-51385D01*
X40212Y-51287D01*
X38524Y-49600D01*
X38525Y-49396D01*
X38445Y-49203D01*
X38297Y-49055D01*
X38225Y-49025D01*
X38324Y-49025D01*
X38416Y-48986D01*
X38486Y-48916D01*
X38525Y-48824D01*
X38525Y-48725D01*
X38525Y-48175D01*
X38486Y-48083D01*
X38416Y-48013D01*
X38324Y-47975D01*
X38225Y-47975D01*
X37675Y-47975D01*
X37583Y-48013D01*
X37513Y-48083D01*
X37475Y-48175D01*
X37475Y-48274D01*
X37475Y-48550D01*
X37424Y-48500D01*
X37425Y-48415D01*
X37360Y-48259D01*
X37241Y-48139D01*
X37084Y-48075D01*
X36915Y-48074D01*
X36759Y-48139D01*
X36639Y-48258D01*
X36575Y-48415D01*
X36574Y-48584D01*
X36622Y-48700D01*
X36300Y-48700D01*
X36300Y-47877D01*
X36415Y-47924D01*
X36584Y-47925D01*
X36740Y-47860D01*
X36860Y-47741D01*
X36924Y-47584D01*
X36925Y-47495D01*
X36979Y-47550D01*
X38967Y-47550D01*
X39200Y-48073D01*
X39200Y-48500D01*
X39222Y-48614D01*
X39287Y-48712D01*
X39385Y-48777D01*
X39500Y-48800D01*
X39523Y-48800D01*
X40579Y-51177D01*
X40555Y-51202D01*
X40475Y-51395D01*
X40474Y-51603D01*
X40554Y-51797D01*
X40702Y-51944D01*
X40895Y-52024D01*
X40950Y-52024D01*
X40950Y-56450D01*
M02*
